<mxfile host="app.diagrams.net" modified="2022-02-14T13:40:06.586Z" agent="5.0 (X11; Linux x86_64) AppleWebKit/537.36 (KHTML, like Gecko) Chrome/98.0.4758.80 Safari/537.36" etag="VHp0CgiJLuVDKbrXGgKN" version="16.5.6" type="github">
  <diagram id="3-a4-CI-qSKEU-WzGFCh" name="Page-1">
    <mxGraphModel dx="1264" dy="778" grid="1" gridSize="10" guides="1" tooltips="1" connect="1" arrows="1" fold="1" page="1" pageScale="1" pageWidth="827" pageHeight="1169" math="0" shadow="0">
      <root>
        <mxCell id="0" />
        <mxCell id="1" parent="0" />
        <mxCell id="anqY4GfiEuh1hVHhhSKL-1" value="Charging&lt;br&gt;Station" style="whiteSpace=wrap;html=1;aspect=fixed;" vertex="1" parent="1">
          <mxGeometry x="374" y="544" width="80" height="80" as="geometry" />
        </mxCell>
        <mxCell id="anqY4GfiEuh1hVHhhSKL-2" value="" style="shape=image;html=1;verticalAlign=top;verticalLabelPosition=bottom;labelBackgroundColor=#ffffff;imageAspect=0;aspect=fixed;image=https://cdn4.iconfinder.com/data/icons/transportation-and-vehicle/128/Transportation_And_Vehicle_3-03-128.png" vertex="1" parent="1">
          <mxGeometry x="200" y="720" width="90" height="90" as="geometry" />
        </mxCell>
        <mxCell id="anqY4GfiEuh1hVHhhSKL-11" value="" style="shape=image;html=1;verticalAlign=top;verticalLabelPosition=bottom;labelBackgroundColor=#ffffff;imageAspect=0;aspect=fixed;image=https://cdn3.iconfinder.com/data/icons/energy-and-power-glyph-24-px/24/Automotive_battery_battery_charging_car_battery_truck_battery_vehicle_battery_2-128.png;fillOpacity=70;" vertex="1" parent="1">
          <mxGeometry x="100" y="410" width="80" height="80" as="geometry" />
        </mxCell>
        <mxCell id="anqY4GfiEuh1hVHhhSKL-12" value="" style="shape=image;html=1;verticalAlign=top;verticalLabelPosition=bottom;labelBackgroundColor=#ffffff;imageAspect=0;aspect=fixed;image=https://cdn3.iconfinder.com/data/icons/energy-and-power-glyph-24-px/24/Automotive_battery_battery_charging_car_battery_truck_battery_vehicle_battery_2-128.png;fillOpacity=70;" vertex="1" parent="1">
          <mxGeometry x="200" y="410" width="80" height="80" as="geometry" />
        </mxCell>
        <mxCell id="anqY4GfiEuh1hVHhhSKL-13" value="" style="shape=image;html=1;verticalAlign=top;verticalLabelPosition=bottom;labelBackgroundColor=#ffffff;imageAspect=0;aspect=fixed;image=https://cdn3.iconfinder.com/data/icons/energy-and-power-glyph-24-px/24/Automotive_battery_battery_charging_car_battery_truck_battery_vehicle_battery_2-128.png;fillOpacity=70;" vertex="1" parent="1">
          <mxGeometry x="300" y="410" width="80" height="80" as="geometry" />
        </mxCell>
        <mxCell id="anqY4GfiEuh1hVHhhSKL-14" value="" style="shape=image;html=1;verticalAlign=top;verticalLabelPosition=bottom;labelBackgroundColor=#ffffff;imageAspect=0;aspect=fixed;image=https://cdn3.iconfinder.com/data/icons/energy-and-power-glyph-24-px/24/Automotive_battery_battery_charging_car_battery_truck_battery_vehicle_battery_2-128.png;fillOpacity=70;" vertex="1" parent="1">
          <mxGeometry x="400" y="410" width="80" height="80" as="geometry" />
        </mxCell>
        <mxCell id="anqY4GfiEuh1hVHhhSKL-15" value="" style="shape=image;html=1;verticalAlign=top;verticalLabelPosition=bottom;labelBackgroundColor=#ffffff;imageAspect=0;aspect=fixed;image=https://cdn3.iconfinder.com/data/icons/energy-and-power-glyph-24-px/24/Automotive_battery_battery_charging_car_battery_truck_battery_vehicle_battery_2-128.png;fillOpacity=70;" vertex="1" parent="1">
          <mxGeometry x="500" y="410" width="80" height="80" as="geometry" />
        </mxCell>
        <mxCell id="anqY4GfiEuh1hVHhhSKL-16" value="" style="shape=image;html=1;verticalAlign=top;verticalLabelPosition=bottom;labelBackgroundColor=#ffffff;imageAspect=0;aspect=fixed;image=https://cdn3.iconfinder.com/data/icons/energy-and-power-glyph-24-px/24/Automotive_battery_battery_charging_car_battery_truck_battery_vehicle_battery_2-128.png;fillOpacity=70;" vertex="1" parent="1">
          <mxGeometry x="600" y="410" width="80" height="80" as="geometry" />
        </mxCell>
      </root>
    </mxGraphModel>
  </diagram>
</mxfile>
